<?xml version="1.0" encoding="utf-8" ?><svg xmlns="http://www.w3.org/2000/svg" xmlns:xlink="http://www.w3.org/1999/xlink" width="1344" height="768" viewBox="0 0 1344 768"><path fill="#0D2644" d="M321.29 300.911C334.057 299.876 370.774 300.094 381.906 307.738C386.153 310.655 386.193 327.134 386.505 332.865C385.334 335.067 383.483 337.506 382.01 339.566C382.787 344.098 384.179 347.523 388.441 349.477C405.363 357.238 420.294 366.824 420.927 388.118C421.842 418.924 421.795 452.529 421.197 483.601C420.74 507.329 367.336 512.65 350.601 513.907C323.51 515.083 287.517 514.05 263.257 501.523C257.222 498.407 251.158 493.842 249.109 487.055C247.179 480.663 247.385 393.898 248.856 384.595C249.856 378.279 252.121 372.053 256.048 366.958C264.607 355.853 283.334 351.763 286.998 344.628C290.571 337.668 285.767 338.883 284.431 333.435C283.209 328.456 284.537 312.896 287.735 308.786C293.299 301.636 312.811 301.541 321.29 300.911ZM257.401 438.06L257.578 416.483C257.89 402.174 255.033 396.919 271.884 393.602L273.311 391.812C273.588 387.48 274.881 383.458 276.481 379.468C283.094 369.525 289.221 367.299 300.505 364.449C293.585 370.565 292.866 374.865 290.473 383.583L288.575 388.713L288.69 389.397C323.122 385.294 355.34 384.994 389.575 391.099C380.61 374.934 380.459 377.727 370.135 365.588C367.755 363.43 365.744 360.586 363.778 358.016C343.728 362.196 320.88 363.696 301.46 355.869C327.027 359.151 337.818 358.961 363.469 356.903L361.264 353.503C359.613 350.373 359.501 347.615 359.075 344.128C341.795 345.327 316.539 346.199 299.757 342.082C298.316 348.129 296.922 349.64 292.934 354.344C294.524 350.246 297.51 344.867 295.922 341.214L294.989 340.794C292.024 342.506 289.991 350.138 287.856 351.734C284.68 354.109 277.377 356.631 274.005 358.462C266.734 362.409 256.297 371.945 254.79 380.328C252.076 395.421 252.761 415.313 252.761 430.869C252.762 446.023 252.313 464.096 253.237 478.822C260.41 487.17 271.708 491.794 282.077 494.975C276.269 495.057 270.691 493.911 265.059 492.575C270.878 495.587 273.478 497.878 279.781 497.725L280.656 498.703C275.292 499.981 264.076 494.755 259.055 492.514C259.313 495.822 274.385 500.992 277.639 501.876C317.18 512.612 370.723 513.517 407.868 494.882C409.948 493.486 412.325 492.192 413.612 490.105C411.588 490.283 408.565 492.794 406.728 494.099C398.176 498.575 394.581 498.456 385.334 500.238L400.268 493.326C397.659 493.956 387.578 496.753 386.049 494.448C394.072 493.506 408.391 487.003 414.245 480.174L414.799 479.8C415.08 479.43 415.389 479.061 415.612 478.651C417.237 475.653 416.528 399.37 416.016 390.003C415.81 386.249 415.542 381.507 414.231 377.997C410.02 366.721 399.066 359.961 388.567 355.391C386.358 355.576 386.304 355.18 385.144 356.37C385.874 356.924 386.533 357.367 387.14 358.057L386.599 358.051L385.979 358.934C404.52 364.477 408.656 373.989 412.404 391.48C413.429 393.826 414.121 398.928 414.117 401.559L414.375 399.994C413.968 405.976 413.337 412.115 413.091 418.061C413.054 415.303 413.134 410.862 412.693 408.272C411.383 421.568 412.814 440.312 412.433 454.287C412.299 459.21 411.967 475.006 412.404 479.03C400.933 501.396 275.945 502.527 257.519 479.313C257.54 475.548 257.509 473.185 258.102 469.429C257.01 463.758 257.339 444.321 257.401 438.06ZM370.723 314.562C364.755 310.542 363.596 311.754 359.045 309.91C364.507 308.968 372.945 314.963 377.965 313.209L378.436 312.038C372.83 303.152 303.298 302.97 293.84 311.147L294.123 312.085C296.279 313.191 298.239 312.577 300.662 312.175L302.295 313.967C318.992 320.32 353.259 317.98 370.723 314.562ZM367.431 329.066C367.418 326.292 367.775 323.237 368.036 320.45C346.885 322.62 324.848 324.087 303.86 320.022C302.086 319.678 291.299 317.506 290.202 318.539L290.599 320.234C293.828 322.23 297.428 324.689 300.916 321.842L301.447 322.496L301.296 323.718C304.093 325.656 316.45 326.525 320.646 326.964C325.233 327.074 331.892 327.545 336.208 327.379L333.082 328.888C326.77 329.395 320.656 329.702 314.316 329.408C309.405 329.152 292.935 326.66 290.062 328.396C287.033 343.908 353.203 339.996 362.294 338.239C363.905 337.096 365.497 336.315 366.075 334.548L365.097 333.786C360.45 334.218 355.144 334.862 350.524 334.818C348.734 334.553 345.162 334.48 343.217 334.384L342.834 333.622C351.533 332.54 359.118 331.837 367.431 329.066Z"/><path fill="#0D2644" d="M276.481 379.468C280.816 382.78 285.147 382.946 290.473 383.583L288.575 388.713L288.69 389.397C288.409 391.403 288.104 392.311 288.763 394.228C286.347 394.74 283.257 395.157 281.306 396.506L281.554 397.139L282.755 397.643L274.654 398.914L271.493 399.34C271.569 397.458 271.746 395.489 271.884 393.602L273.311 391.812C273.588 387.48 274.881 383.458 276.481 379.468Z"/><defs><linearGradient id="gradient_0" gradientUnits="userSpaceOnUse" x1="278.35184" y1="448.96082" x2="279.31778" y2="399.82648"><stop offset="0" stop-color="#657185"/><stop offset="1" stop-color="#8D9CB1"/></linearGradient></defs><path fill="url(#gradient_0)" d="M271.884 393.602C271.746 395.489 271.569 397.458 271.493 399.34L274.654 398.914L282.755 397.643L287.841 396.321L287.452 400.341L287.205 434.954C287.178 438.573 287.334 448.485 286.885 451.627C285.409 450.624 283.925 449.633 282.434 448.652C281.404 449.565 281.422 449.694 280.025 449.885L278.636 448.684C278.65 447.096 278.634 446.945 278.325 445.386L278.104 448.834L277.788 449.076C277.378 446.23 277.12 443.917 276.904 441.05C274.447 439.695 273.482 440.247 271.218 441.383C271.82 438.447 271.55 435.461 271.42 432.463L270.925 435.28C268.888 433.101 266.881 430.88 264.665 428.884C262.907 431.168 259.037 435.554 258.001 437.777L257.401 438.06L257.578 416.483C257.89 402.174 255.033 396.919 271.884 393.602Z"/><path fill="#142E52" d="M271.884 393.602C271.746 395.489 271.569 397.458 271.493 399.34L271.37 401.634C271.468 411.703 271.733 422.458 271.42 432.463L270.925 435.28C268.888 433.101 266.881 430.88 264.665 428.884C262.907 431.168 259.037 435.554 258.001 437.777L257.401 438.06L257.578 416.483C257.89 402.174 255.033 396.919 271.884 393.602Z"/><path fill="#9CA5B3" d="M282.755 397.643L287.841 396.321L287.452 400.341C282.014 400.587 279.582 401.047 274.654 398.914L282.755 397.643Z"/><path fill="#2B3E56" d="M363.644 448.856C366.795 445.708 376.969 435.656 377.108 431.801L378.378 432.455C380.081 431.533 380.324 431.106 381.653 429.638C381.068 431.205 380.894 431.303 379.749 432.574C380.001 434.762 380.548 434.903 381.929 436.843L380.337 435.638C379.884 435.29 379.406 434.943 378.945 434.601C378.028 435.077 365.44 448.916 364.702 450.105C365.28 451.552 365.3 451.495 366.367 452.667L365.636 453.212L363.685 451.701C360.888 452.93 345.773 471.013 339.368 474.928C342.461 471.195 345.513 467.3 349.19 464.154C346.021 460.895 341.201 455.245 338 452.858L336.854 452.852C334.907 456.715 338.333 476.146 335.815 482.249C334.855 473.791 335.188 459.116 335.185 450.173C339.113 450.467 343.245 451.093 346.959 449.92L347.718 449.141C344.71 447.027 339.008 447.709 335.259 447.847C335.275 443.378 335.737 439.799 334.226 435.648L333.359 435.242C331.45 438.665 332.018 443.872 332.145 447.831C327.244 447.702 323.973 447.354 319.24 448.764L319.01 449.39C324.913 451.315 326.089 450.039 332.038 450.383C332.09 457.088 332.59 475.992 331.467 481.935C330.548 477.261 330.86 453.104 330.391 452.368C329.345 452.677 328.817 452.999 327.836 452.816C325.156 449.919 321.738 453.52 318.28 451.921C317.244 449.78 317.179 448.164 318.646 446.283C322.465 445.975 326.704 446.084 330.566 446.092C330.527 442.805 329.963 435.881 331.812 433.479C333.792 433.198 334.343 432.945 336.12 433.652C337.013 435.952 336.149 441.652 336.802 445.728L336.921 446.444C338.997 444.843 344.771 438.156 346.892 435.92C348.225 436.818 347.485 436.599 349.232 436.403C352.103 437.689 360.437 446.178 363.644 448.856Z"/><path fill="#142E52" d="M346.892 435.92C348.225 436.818 347.485 436.599 349.232 436.403C352.103 437.689 360.437 446.178 363.644 448.856L362.345 449C359.456 453.74 353.978 459.238 350.095 463.187C347.943 460.962 341.636 454.756 340.404 452.468C343.388 450.469 346.765 453.679 349.654 450.281C349.784 447.58 350.098 448.502 348.752 446.58C346.102 445.437 340.171 446.246 336.921 446.444C338.997 444.843 344.771 438.156 346.892 435.92Z"/><path fill="#2B3E56" d="M333.676 421.107C338.078 424.775 344.288 430.715 347.949 435.056C351.452 431.62 357.235 424.398 360.987 423.586C365.538 426.22 357.986 436.861 363.675 439.155C364.155 439.026 364.636 438.897 365.116 438.768C365.809 436.191 364.849 424.389 366.077 422.686C367.389 427.091 367.858 437.889 364.431 441.215C362.537 441.215 363.14 441.229 361.291 440.063C360.319 438.346 360.975 426.158 361.008 423.321C358.308 425.961 350.72 433.412 349.232 436.403C347.485 436.599 348.225 436.818 346.892 435.92C342.68 431.288 337.966 426.728 333.973 422.039C331.201 426.357 325.036 431.545 321.065 434.975C322.767 436.864 325.219 439.418 326.557 441.478L326.134 442.312L326.691 442.702L327.127 442.368L327.197 442.513L326.764 442.809C324.032 440.796 322.142 438.8 319.774 436.42C315.05 440.96 310.279 445.451 305.461 449.891C309.517 453.986 314.345 458.64 318.035 462.96L324.671 456.726C324.088 462.169 320.162 460.868 319.894 464.992C322.388 467.654 325.758 470.83 327.215 474.065L326.872 474.625C323.898 471.842 320.819 468.28 318.219 465.111C316.734 466.529 312.436 471.014 310.844 471.425C311.666 466.002 314.665 468.11 315.783 464.12C314.483 459.904 307.514 454.009 304.063 450.703C300.381 454.426 291.154 463.809 286.828 466.178C286.36 462.723 286.814 459.429 287.134 455.964C288.383 457.523 289.648 459.397 291.305 460.4C294.886 458.349 300.462 452.5 302.924 449.154C301.574 447.386 299.895 445.997 299.782 444.227C301.819 445.176 303.218 447.131 304.753 448.872C311.154 441.378 325.832 429.063 333.676 421.107Z"/><path fill="#FAF9FA" d="M276.481 379.468C280.816 382.78 285.147 382.946 290.473 383.583L288.575 388.713L288.69 389.397C288.409 391.403 288.104 392.311 288.763 394.228C286.347 394.74 283.257 395.157 281.306 396.506L281.554 397.139L282.755 397.643L274.654 398.914L271.493 399.34C271.569 397.458 271.746 395.489 271.884 393.602L273.311 391.812C273.588 387.48 274.881 383.458 276.481 379.468Z"/><path fill="#BABFC6" d="M273.311 391.812C274.967 392.461 287.004 389.933 288.575 388.713L288.69 389.397C288.409 391.403 288.104 392.311 288.763 394.228C286.347 394.74 283.257 395.157 281.306 396.506L281.554 397.139L282.755 397.643L274.654 398.914L271.493 399.34C271.569 397.458 271.746 395.489 271.884 393.602L273.311 391.812Z"/><path fill="#586B85" d="M271.218 441.383C273.482 440.247 274.447 439.695 276.904 441.05C277.12 443.917 277.378 446.23 277.788 449.076L278.104 448.834L278.325 445.386C278.634 446.945 278.65 447.096 278.636 448.684L280.025 449.885C281.422 449.694 281.404 449.565 282.434 448.652C283.925 449.633 285.409 450.624 286.885 451.627L286.745 454.437L286.091 455.376C282.597 454.602 282.183 450.496 279.263 451.814C278.872 453.872 278.789 454.2 279.186 456.244L277.889 462.287L277.39 462.506C276.111 459.121 276.212 463.237 271.658 460.743L271.72 452.496L271.561 443.844L271.218 441.383Z"/><path fill="#728295" d="M271.218 441.383C273.482 440.247 274.447 439.695 276.904 441.05C276.668 445.314 277.33 453.279 274.733 456.471C272.369 456.305 272.251 454.678 271.72 452.496L271.561 443.844L271.218 441.383Z"/><path fill="#4D5F77" d="M279.186 456.244C278.789 454.2 278.872 453.872 279.263 451.814C282.183 450.496 282.597 454.602 286.091 455.376L286.745 454.437L287.134 455.964C286.814 459.429 286.36 462.723 286.828 466.178C286.667 467.329 286.632 468.274 286.209 469.336L285.788 468.318L283.921 468.244L283.588 466.918C285.134 466.284 284.954 466.609 285.884 465.463C284.711 463.767 284.175 463.092 282.754 461.6L281.856 462.081L281.804 462.459C281.591 463.925 281.595 464.041 280.952 465.336L278.87 466.5L277.889 462.287L279.186 456.244Z"/><path fill="#142E52" d="M257.401 438.06L258.001 437.777C258.157 441.054 258.28 443.942 258.228 447.234C259.709 449.107 266.125 456.648 266.255 458.123C263.694 457.754 264.307 457.445 262.448 458.457C260.774 461.615 260.498 462.832 259.584 466.332L259.353 465.911L258.102 469.429C257.01 463.758 257.339 444.321 257.401 438.06Z"/><path fill="#2B3E56" d="M271.658 460.743C276.212 463.237 276.111 459.121 277.39 462.506L277.889 462.287L278.87 466.5C278.661 470.336 278.833 469.404 280.552 472.653L280.037 473.294L278.27 472.54L277.632 470.339C276.994 471.259 277.057 471.209 276.014 471.614C274.878 471.514 274.182 471.592 273.21 471.108C271.739 469.17 271.848 465.806 271.664 463.224L271.658 460.743Z"/><path fill="#4D5F77" d="M271.658 460.743C276.212 463.237 276.111 459.121 277.39 462.506C276.235 465.319 276.969 464.533 274.79 466.011C272.864 465.554 272.556 465.274 271.664 463.224L271.658 460.743Z"/><path fill="#2B3E56" d="M270.925 435.28L271.42 432.463C271.55 435.461 271.82 438.447 271.218 441.383L271.561 443.844C268.888 444.04 267.219 444.556 264.855 443.118C263.144 439.05 268.215 437.926 270.536 437.034L270.925 435.28Z"/><path fill="#D0D3D7" d="M306.952 391.81L306.493 393.216C301.648 393.256 292.706 395.184 287.841 396.321L282.755 397.643L281.554 397.139L281.306 396.506C283.257 395.157 286.347 394.74 288.763 394.228C294.382 392.831 301.112 392.372 306.952 391.81Z"/><path fill="#586B85" d="M306.952 391.81C310.042 391.278 334.178 390.208 333.276 390.527L332.116 390.313L332.44 390.332C331.187 391.337 309.266 392.997 306.493 393.216L306.952 391.81Z"/><path fill="#2B3E56" d="M360.237 461.438C362.231 461.479 364.185 461.218 365.642 462.369C367.072 464.728 366.041 469.71 366.254 473.314L367.456 474.155L366.784 474.76L365.542 474.679C363.615 471.173 366.522 466.018 363.786 462.778L362.161 463.123C361.37 466.053 361.697 471.926 361.743 475.181C358.351 475.126 351.79 474.409 349.527 476.822L349.84 477.829L351.663 478.683C354.613 478.195 358.799 478.156 361.874 478.034C362.012 480.63 361.933 482.866 361.853 485.457C358.993 473.917 357.95 481.802 348.881 479.25C347.993 477.65 348.345 477.8 348.532 475.58C351.735 471.277 355.473 475.539 359.674 473.708C361.123 471.816 360.354 464.324 360.237 461.438Z"/><path fill="#9CA5B3" d="M397.449 409.08L399.157 409.057C387.959 415.848 351.428 416.983 337.687 416.508L334.966 416.498C357.1 415.315 375.74 414.312 397.449 409.08Z"/><path fill="#2B3E56" d="M305.377 460.311L306.919 461.261C307.665 464.089 307.224 470.665 307.133 473.867C311.543 473.798 315.366 473.418 319.457 475.241C321.293 478.164 319.872 478.772 316.829 480.323L315.836 479.117C317.242 478.128 317.351 478.112 317.858 476.545C316.063 474.769 308.707 474.808 305.877 474.689C305.99 470.981 306.462 463.608 305.377 460.311Z"/><path fill="#142E52" d="M392.592 445.189C394.613 444.973 395.9 445.028 397.894 445.088L398.25 445.708L397.435 446.844C395.882 446.82 395.411 446.823 393.884 447.064C392.897 450.157 393.519 462.723 393.629 466.813C393.605 467.953 393.763 470.341 393.258 471.099C392.034 468.738 392.321 448.843 392.592 445.189Z"/><path fill="#2B3E56" d="M306.681 421.204C307.413 423.351 307.803 438.293 307.414 440.802C304.352 440.269 304.779 439.814 302.791 441.133L302.268 440.027C302.062 439.491 301.916 438.676 301.785 438.093C303.353 439.071 303.671 439.135 305.477 439.563C307.29 437.418 304.938 426.192 306.681 421.204Z"/><path fill="#2B3E56" d="M302.321 460.416L303.273 460.872C302.495 464.7 302.581 470.087 302.598 474.064C298.843 473.968 293.169 472.68 290.242 473.862L289.917 474.502L289.679 473.399L290.6 472.102C293.657 471.002 294.77 473.625 299.222 473.047C303.081 470.09 300.292 465.665 302.321 460.416Z"/><path fill="#2B3E56" d="M388.222 451.304L388.738 451.481C389.532 453.711 389.086 469.392 388.838 472.352C386.987 469.484 388.011 455.546 388.222 451.304Z"/><path fill="#142E52" d="M388.096 429.139L388.775 430.023C389.109 433.332 390.02 440.664 388.45 443.314L386.85 443.331C385.747 443.261 385.663 443.366 384.754 442.783C385.477 442.623 387.316 442.255 387.447 441.816C388.026 439.872 388.041 430.911 388.096 429.139Z"/><path fill="#2B3E56" d="M380.8 457.337L381.638 457.769C381.153 459.524 379.785 460.275 378.238 461.709C378.146 463.908 379.269 464.124 381.12 466.454L380.619 467.142C378.09 464.225 377.548 465.295 375.63 463.032C375.859 461.337 379.055 459.039 380.8 457.337Z"/><path fill="#2B3E56" d="M289.201 476.843C291.882 476.404 299.764 476.111 301.618 478.027C299.87 478.424 291.394 477.627 289.201 476.843Z"/><path fill="#2B3E56" d="M376.571 443.542L377.929 443.26L377.269 445.676L377.98 446.808C379.84 446.891 380.583 446.889 382.266 447.672C379.559 448.332 378.032 449.112 375.91 446.97C375.83 445.234 375.879 445.172 376.571 443.542Z"/><path fill="#142E52" d="M368.408 477.321C371.293 477.078 373.848 477.333 376.685 477.762L376.567 478.475L374.877 478.171C371.236 478.555 369.289 478.769 365.664 478.584L365.7 477.996L368.408 477.321Z"/><path fill="#2B3E56" d="M284.659 498.557C294.034 497.369 304.641 499.782 314.195 501.066C321.858 502.146 329.583 502.724 337.321 502.797C342.617 502.834 370.609 500.541 372.513 501.062L370.796 501.696C344.809 507.229 310 506.933 284.517 499.253L284.659 498.557Z"/><path fill="#2B3E56" fill-opacity="0.98039216" d="M283.471 359.77L284.685 359.661C284.352 361.317 262.041 369.118 258.804 388.202L258.863 388.753L258.27 387.287C259.774 371.637 269.304 364.203 283.471 359.77Z"/><path fill="#9CA5B3" d="M374.646 338.347C378.73 345.935 376.761 347.972 384.546 352.989L388.567 355.391C386.358 355.576 386.304 355.18 385.144 356.37C385.874 356.924 386.533 357.367 387.14 358.057L386.599 358.051L385.979 358.934C404.52 364.477 408.656 373.989 412.404 391.48C413.429 393.826 414.121 398.928 414.117 401.559L414.375 399.994C413.968 405.976 413.337 412.115 413.091 418.061C413.054 415.303 413.134 410.862 412.693 408.272L412.34 400.985C405.811 394.465 398.186 393.491 389.575 391.099C380.61 374.934 380.459 377.727 370.135 365.588C367.755 363.43 365.744 360.586 363.778 358.016C364.857 357.848 365.867 357.506 366.915 357.194L366.696 356.704L363.469 356.903L361.264 353.503C359.613 350.373 359.501 347.615 359.075 344.128L368.968 343.202C370.234 345.566 371.823 348.333 372.723 350.81C373.747 351.363 374.993 352.169 376.069 352.348C374.971 346.925 374.471 344.045 374.646 338.347Z"/><path fill="#BABFC6" d="M374.646 338.347C378.73 345.935 376.761 347.972 384.546 352.989L388.567 355.391C386.358 355.576 386.304 355.18 385.144 356.37C385.874 356.924 386.533 357.367 387.14 358.057L386.599 358.051C380.783 357.176 376.688 359.743 375.131 358.648L374.932 356.762C372.455 356.885 370.178 356.779 367.993 357.916C365.308 362.142 371.405 362.088 370.135 365.588C367.755 363.43 365.744 360.586 363.778 358.016C364.857 357.848 365.867 357.506 366.915 357.194L366.696 356.704L363.469 356.903L361.264 353.503C359.613 350.373 359.501 347.615 359.075 344.128L368.968 343.202C370.234 345.566 371.823 348.333 372.723 350.81C373.747 351.363 374.993 352.169 376.069 352.348C374.971 346.925 374.471 344.045 374.646 338.347Z"/><path fill="#9CA5B3" d="M359.075 344.128L368.968 343.202C370.234 345.566 371.823 348.333 372.723 350.81C368.576 353.781 366.464 353.49 361.264 353.503C359.613 350.373 359.501 347.615 359.075 344.128Z"/><path fill="#D0D3D7" d="M374.646 338.347C378.73 345.935 376.761 347.972 384.546 352.989C382.35 354.575 379.41 354.784 376.872 353.968L376.069 352.348C374.971 346.925 374.471 344.045 374.646 338.347Z"/><path fill="#2B3E56" d="M385.979 358.934C404.52 364.477 408.656 373.989 412.404 391.48L412.074 392.261L411.562 392.417C409.033 377.942 404.936 373.772 393.373 365.21C391.155 363.567 387.698 361.049 385.979 358.934Z"/><defs><linearGradient id="gradient_1" gradientUnits="userSpaceOnUse" x1="385.65286" y1="414.56082" x2="421.47137" y2="388.43982"><stop offset="0" stop-color="#8C98A6" stop-opacity="0.75294119"/><stop offset="1" stop-color="#ABB3C3"/></linearGradient></defs><path fill="url(#gradient_1)" d="M388.567 355.391C399.066 359.961 410.02 366.721 414.231 377.997C415.542 381.507 415.81 386.249 416.016 390.003C416.528 399.37 417.237 475.653 415.612 478.651C415.389 479.061 415.08 479.43 414.799 479.8C414.62 471.683 414.792 455.144 413.679 448.078C413.2 457.541 414 468.969 413.192 477.57L412.404 479.03C411.967 475.006 412.299 459.21 412.433 454.287C412.814 440.312 411.383 421.568 412.693 408.272C413.134 410.862 413.054 415.303 413.091 418.061C413.337 412.115 413.968 405.976 414.375 399.994L414.117 401.559C414.121 398.928 413.429 393.826 412.404 391.48C408.656 373.989 404.52 364.477 385.979 358.934L386.599 358.051L387.14 358.057C386.533 357.367 385.874 356.924 385.144 356.37C386.304 355.18 386.358 355.576 388.567 355.391Z"/><path fill="#D0D3D7" d="M300.505 364.449C293.585 370.565 292.866 374.865 290.473 383.583C285.147 382.946 280.816 382.78 276.481 379.468C283.094 369.525 289.221 367.299 300.505 364.449Z"/><path fill="#2B3E56" d="M301.46 355.869C327.027 359.151 337.818 358.961 363.469 356.903L366.696 356.704L366.915 357.194C365.867 357.506 364.857 357.848 363.778 358.016C343.728 362.196 320.88 363.696 301.46 355.869Z"/><path fill="#9CA5B3" d="M368.036 320.45C371.503 319.583 377.854 317.243 380.776 319.87C380.442 325.218 371.508 327.724 367.431 329.066C367.418 326.292 367.775 323.237 368.036 320.45Z"/><path fill="#9CA5B3" d="M365.097 333.786C369.598 332.652 375.236 330.632 379.49 330.665L380.498 331.313C378.527 335.58 366.584 338.351 362.294 338.239C363.905 337.096 365.497 336.315 366.075 334.548L365.097 333.786Z"/><path fill="#2B3E56" fill-opacity="0.97647059" d="M300.662 312.175C306.922 310.52 322.387 307.972 328.46 309.421C318.853 311.244 311.956 310.994 302.295 313.967L300.662 312.175Z"/><path fill="#142E52" d="M320.646 326.964C325.233 327.074 331.892 327.545 336.208 327.379L333.082 328.888C326.77 329.395 320.656 329.702 314.316 329.408C315.778 327.625 318.319 327.441 320.646 326.964Z"/><path fill="#9CA5B3" fill-opacity="0.47450981" d="M413.679 448.078C414.792 455.144 414.62 471.683 414.799 479.8L414.245 480.174L413.782 477.825L413.192 477.57C414 468.969 413.2 457.541 413.679 448.078Z"/><path fill="#2B3E56" fill-opacity="0.94509804" d="M335.199 334.172C338.091 333.814 339.921 333.68 342.834 333.622L343.217 334.384C345.162 334.48 348.734 334.553 350.524 334.818C345.555 335.68 337.405 335.52 332.126 335.508L335.199 334.172Z"/><path fill="#727377" fill-opacity="0.74117649" d="M336.208 327.379C339.78 327.027 344.74 326.331 348.183 326.772C343.429 328.138 338.028 328.515 333.082 328.888L336.208 327.379Z"/><path fill="#727377" fill-opacity="0.84313726" d="M332.126 335.508C329.923 335.529 323.97 335.842 322.68 334.829L321.285 335.062L321.867 334.773L322.004 335.114C323.286 334.025 332.952 334.216 335.199 334.172L332.126 335.508Z"/><path fill="#728295" fill-opacity="0.32156864" d="M406.728 494.099C408.565 492.794 411.588 490.283 413.612 490.105C412.325 492.192 409.948 493.486 407.868 494.882L406.728 494.099Z"/><path fill="#0D2644" d="M371.771 164.64C373.769 193.157 359.789 229.832 340.8 250.851C325.629 267.645 303.798 271.559 282.373 272.412C296.45 275.562 303.635 276.028 317.858 272.49C306.421 281.315 295.646 288.278 283.876 296.416C276.56 301.474 268.905 309.258 261.351 314.463C242.123 314.505 230.102 315.185 212.87 323.922C227.062 321.226 241.627 318.601 256.08 320.456C242.239 333.79 234.28 346.58 223.107 361.787C207.798 382.623 181.717 388.622 157.309 391.881C176.458 395.884 190.098 393.992 207.071 384.349C191.544 403.739 179.561 409.543 156.221 416C163.225 416.407 168.961 416.695 175.911 415.523C157.33 428.912 143.816 431.418 121.897 431.537C130.833 437.571 133.101 439.186 138.474 448.551C133.01 443.131 126.072 437.473 117.865 438.761L117.334 439.651C120.226 445.234 121.282 447.287 122.972 453.286L122.716 452.88C111.514 435.127 108.29 437.749 99.5389 454.542C92.8179 467.44 90.6801 469.479 88.0245 484.4C77.1481 492.278 70.5567 494.754 61.4314 506.617C65.6056 498.596 69.3708 491.674 74.2738 484.083C76.6773 481.073 80.7915 480.426 80.5649 476.293C78.8765 474.319 79.7448 474.921 77.2295 474.063C73.3222 475.193 71.3776 483.048 69.6658 487.082C66.6075 494.372 62.7173 501.283 58.0727 507.68C64.0951 494.69 63.2263 485.891 67.8555 473.448C68.6578 471.292 76.9016 462.873 78.8386 459.832C84.3124 451.239 89.9943 441.32 94.3076 432.129C90.0282 424.356 88.6348 423.572 80.4477 420.579C86.3822 420.698 88.7016 420.852 94.0246 423.409C91.0175 412.518 88.5464 408.006 80.4623 400.644C89.2803 404.556 90.9056 406.573 96.979 413.936C94.3034 401.261 93.5734 392.29 95.496 379.525C96.396 388.898 98.2333 394.993 102.161 403.436C102.766 371.066 112.197 347.223 132.457 322.55C129.384 338.604 128.492 350.006 131.652 365.89C132.866 348.749 134.023 331.269 141.754 315.613C151.322 296.237 170.867 280.033 188.011 267.605C180.407 284.883 178.159 291.005 176.912 309.545C182.438 291.611 191.004 269.349 205.912 256.978C232.777 234.686 271.339 222.869 303.335 209.836C300.51 215.723 298.913 219.611 296.857 225.76C301.848 220.379 305.528 212.673 311.442 208.086C316.363 204.268 322.89 201.161 328.53 198.433C346.085 189.943 360.996 181.411 371.771 164.64ZM88.8037 458.944C91.106 457.926 91.1389 458.129 92.6201 455.762C98.3756 446.564 103.921 437.14 109.685 427.941C120.127 411.273 131.183 394.998 142.831 379.148C168.206 345.134 197.518 314.245 230.155 287.125C240.655 278.688 251.487 270.676 262.628 263.107C272.564 256.354 330.339 221.083 333.665 214.4L333.342 214.06C318.196 226.274 297.703 237.897 280.685 247.485C201.38 292.167 140.519 361.144 95.7563 439.625C92.8287 444.758 88.2958 450.72 87.0974 456.548C87.5714 458.037 87.5625 457.951 88.8037 458.944Z"/><path fill="#0D2644" d="M1101.82 294.969C1109.46 294.612 1118.41 294.78 1126.15 294.737C1126.14 313.92 1125.66 335.767 1126.72 354.653C1142.26 339.301 1162.5 343.657 1165.74 366.316C1167.72 383.572 1166.7 401.093 1166.74 418.57C1166.79 436.263 1167.57 455.037 1165.93 472.665C1165.43 478.043 1162.93 482.972 1159.91 487.323C1159.08 488.153 1158.42 488.721 1157.48 489.426C1152.68 493.085 1146.59 494.646 1140.62 493.755C1132.33 492.533 1128.49 487.95 1123.98 481.77L1121.75 491.657L1101.49 491.632C1100.49 427.079 1101.66 359.745 1101.82 294.969ZM1137.57 472.722C1140.01 470.884 1141.28 469.268 1141.73 466.116C1143.06 456.943 1143.13 373.349 1140.54 369.804C1139.15 367.908 1137.12 367.177 1134.85 367.003C1133.87 366.927 1132.89 366.918 1131.9 366.916C1129.23 368.871 1126.55 371.292 1126.41 374.945C1125.53 399.173 1126.26 423.538 1126.05 447.796C1126.01 452.267 1126.04 456.693 1126.3 461.149C1126.79 469.759 1128.51 472.911 1137.57 472.722Z"/><path fill="#EA6B19" d="M459.002 304.253C474.003 303.733 506.193 301.187 517.412 310.89C530.421 322.141 527.633 347.887 527.741 363.635C527.81 373.837 528.118 385.66 526.208 395.731C521.096 420.709 503.927 420.059 483.507 420.201L483.437 450.462L483.49 491.526L458.275 491.534C456.935 445.781 458.728 399.032 458.06 353.191C457.833 337.636 457.556 320.408 458.124 304.922L459.002 304.253ZM483.684 398.569C489.557 398.504 494.179 399.003 498.996 395.287C503.288 388.312 502.316 364.931 501.922 356.091C501.066 336.868 507.162 325.121 483.59 326.404C483.441 349.518 482.826 375.612 483.684 398.569Z"/><path fill="#0D2644" d="M882.812 302.174C929.768 297.235 924.217 335.461 923.485 367.988C915.144 367.94 906.803 367.965 898.462 368.063C898.428 356.762 898.879 345.415 898.236 334.079C897.821 326.77 891.242 321.231 884.378 325.804C879.374 329.137 880.39 339.08 880.121 344.288C879.412 354.95 880.911 367.134 888.488 375.153C911.271 399.264 926.649 410.451 924.839 446.041C923.622 469.97 924.948 487.873 895.235 493.513C893.753 493.567 892.27 493.601 890.787 493.615C847.115 493.966 854.244 454.253 854.467 423.498L880.065 423.486C879.994 433.326 877.794 465.471 884.572 469.604C896.761 477.036 898.926 457.509 898.434 450.629C897.524 437.923 900.073 429.32 891.282 419.044C870.544 394.805 850.141 381.103 854.232 345.395C855.7 323.94 854.891 306.111 882.812 302.174Z"/><path fill="#EA6B19" d="M778.032 294.687C785.954 294.493 794.574 294.637 802.552 294.634C802.609 314.176 802.222 336.241 803.185 355.567C803.689 355.031 804.197 354.499 804.71 353.972C817.115 341.213 838.864 343.07 841.802 362.472C843.799 375.656 843.024 392.261 843.05 405.866L843.072 491.527L818.373 491.65C817.892 459.641 818.301 426.436 818.288 394.338C818.355 386.706 821.374 365.063 810.086 366.991C805.019 367.857 802.983 370.934 802.763 375.713C802.159 388.843 802.432 402.099 802.461 415.249L802.552 491.571L778.025 491.622L778.032 294.687Z"/><path fill="#EA6B19" d="M564.317 346.166C600.562 343.515 600.496 368.002 600.485 394.856L600.448 438.603C600.429 458.774 598.73 472.425 604.96 491.594L580.662 491.593L577.437 481.854C569.578 491.843 559.929 498.294 546.49 491.265C539.784 487.758 537.644 480.291 535.846 473.337C534.918 465.761 535.054 458.873 534.917 451.573C534.521 430.381 539.552 419.014 558.757 408.405C564.863 405.032 571.026 402.426 574.96 396.367L575.373 395.724C575.564 390.576 577.297 370.371 572.779 367.636C556.6 357.842 560.309 389.103 560.305 397.085L537.492 397.104C537.443 373.448 533.46 349.937 564.317 346.166ZM563.311 472.082C580.6 477.467 574.767 451.915 575.719 442.099C575.958 439.627 575.684 421.611 575.138 420.74L574.382 420.53C569.271 423.408 562.548 428.094 561.488 434.271C560.103 442.336 557.702 466.023 563.311 472.082Z"/><path fill="#0D2644" d="M1205.16 346.107C1215.28 344.85 1227.42 346.095 1234.93 353.705C1243.75 362.645 1243.81 374.852 1243.89 386.559C1243.98 398.789 1244.08 411.058 1244.15 423.308C1230.64 423.228 1217.12 423.235 1203.6 423.328C1203.9 436.532 1203.1 449.562 1203.79 462.838C1204.41 474.967 1216.76 477.338 1218.67 466.346C1220.12 457.969 1219.42 446.481 1219.35 437.764C1224.4 437.638 1240.61 436.571 1243.77 438.849L1244 440.944C1243.91 453.772 1245.3 470.24 1238.36 481.62C1230.58 495.589 1204.36 497.114 1192.09 488.911C1173.22 476.3 1180.41 441.15 1179.28 421.017C1178.45 406.341 1179.21 388.805 1179.59 374.141C1180.01 358.29 1189.77 348.714 1205.16 346.107ZM1203.64 404.526L1211.93 404.439C1213.87 404.433 1217.4 404.615 1219.02 403.941C1219.57 397.904 1219.13 391.426 1219.22 385.289C1219.35 376.869 1220.64 367.302 1209.97 366.288C1203.11 370.022 1203.44 375.709 1203.38 382.855C1203.31 390.064 1203.59 397.314 1203.64 404.526Z"/><path fill="#0D2644" d="M960.804 346.115C1002.58 341.169 999.439 375.513 999.338 404.307L975.458 404.253C975.086 394.881 977.016 379.62 974.193 371.348C973.477 369.251 972.346 368.048 970.306 367.158C968.456 366.351 966.264 366.34 964.428 367.2C962.592 368.06 961.312 369.592 960.697 371.507C958.385 378.706 958.834 449.484 959.605 461.477C959.763 463.933 959.874 467.459 961.187 469.6C962.368 471.527 964.576 472.724 966.781 473.019C968.734 473.281 970.878 472.907 972.37 471.539C977.478 466.858 975.537 449.357 975.462 442.585L975.537 432.829C982.945 432.539 991.829 432.684 999.343 432.634C999.418 446.332 1001.15 469.597 994.214 480.831C981.553 501.33 939.658 498.161 936.795 470.265C933.908 442.135 935.727 414.799 935.248 386.709C934.897 366.165 938.05 350.219 960.804 346.115Z"/><path fill="#EA6B19" d="M730.55 346.125C766.785 343.349 766.65 367.774 766.287 395.281C758.882 395.424 750.984 395.238 743.541 395.194C743.6 389.625 745.699 364.757 735.903 365.115C729.633 365.344 727.599 375.839 727.868 381.065C728.298 389.424 729.027 395.152 735.801 401.321C749.347 414.671 765.143 422.27 766.911 443.515C768.846 466.765 767.685 490.621 739.005 493.697L737.496 493.718C701.178 494.071 703.957 467.421 704.148 440.45C711.975 440.322 719.804 440.326 727.632 440.462C728.088 447.437 727.28 455.39 727.777 462.154C729.15 480.874 745.786 474.702 742.995 458.038C742.878 454.205 743.419 447.445 741.779 443.966C732.482 424.238 707.117 418.338 704.835 393.866C702.766 371.672 703.667 349.917 730.55 346.125Z"/><path fill="#EA6B19" d="M650.984 346.129L651.597 346.048C653.736 345.772 656.846 345.212 658.541 346.518C659.353 351.44 658.886 365.744 658.836 371.382L657.192 371.351C648.67 371.229 641.032 372.482 639.935 382.785C638.623 395.11 639.176 407.97 639.175 420.417L639.212 491.552C631.327 491.61 623.019 491.81 615.177 491.419C614.148 490.328 614.458 489.132 614.369 487.278L614.224 348.091C621.141 347.982 627.927 347.79 634.84 348.23L636.845 361.402C641.141 353.401 642.676 350.087 650.984 346.129Z"/><path fill="#0D2644" d="M1046.71 346.123C1049.03 345.829 1053.07 345.238 1055.04 346.471C1055.79 351.006 1055.51 366.056 1055.52 371.465C1054.72 371.437 1053.91 371.417 1053.11 371.406C1042.33 371.27 1037.03 374.294 1036.37 385.897C1035.71 397.654 1036.03 409.635 1036.03 421.425L1036 491.559C1029.29 491.627 1018.74 492.034 1012.35 491.374C1011.07 489.797 1011.5 489.031 1011.41 486.591C1011.71 440.421 1011.71 394.25 1011.41 348.08C1018.13 347.855 1024.93 347.964 1031.65 348.007L1033.51 361.842C1036.62 353.518 1038.78 349.78 1046.71 346.123Z"/><path fill="#EA6B19" d="M667.408 347.766C675.721 347.709 684.034 347.755 692.346 347.904L692.283 491.528L667.481 491.583C666.73 444.513 667.267 394.942 667.408 347.766Z"/><path fill="#0D2644" d="M1063.54 347.992C1071.59 347.993 1079.94 347.864 1087.97 348.356L1087.95 491.623L1063.5 491.573C1062.65 444.322 1063.96 395.543 1063.54 347.992Z"/><path fill="#0D2644" d="M227.651 468.8C230.982 468.496 235.628 468.968 238.764 470.236L238.468 470.574C211.581 467.189 213.744 498.15 188.527 498.773C177.887 499.035 173.126 490.952 166.245 484.258C148.452 466.947 132.831 493.887 117.235 500.462C101.725 507.761 95.7116 509.812 78.4222 510.11C73.875 509.661 71.6022 509.217 67.1882 508.214C68.8999 506.299 70.688 505.001 72.7012 503.42C95.9262 506.924 112.583 498.978 129.838 484.005C135.814 478.819 141.528 473.774 149.339 472.123C167.349 468.315 171.765 483.5 182.27 490.319C198.289 500.716 209.748 478.493 220.377 471.42C222.641 469.913 225.002 469.376 227.651 468.8Z"/><path fill="#EA6B19" d="M1266.11 460.546C1274.94 458.887 1283.45 464.7 1285.12 473.534C1286.78 482.368 1280.98 490.884 1272.15 492.562C1263.31 494.242 1254.78 488.428 1253.11 479.58C1251.44 470.733 1257.26 462.207 1266.11 460.546Z"/><path fill="#0D2644" d="M1071 306.363C1078.93 303.743 1087.48 308.051 1090.09 315.985C1092.71 323.919 1088.4 332.471 1080.47 335.084C1072.54 337.695 1063.99 333.385 1061.38 325.457C1058.77 317.528 1063.07 308.981 1071 306.363Z"/><path fill="#EA6B19" d="M675.903 306.392C681.146 305.036 686.713 306.621 690.455 310.536C694.198 314.452 695.532 320.085 693.943 325.263C692.353 330.442 688.089 334.356 682.795 335.496C674.837 337.21 666.971 332.243 665.095 324.321C663.219 316.398 668.022 308.43 675.903 306.392Z"/></svg>
